Coordinates
version=1
nRows=4
nColumns=60
inDegrees=yes

Units are S.I. units (second, meters, Newtons, ...)
If the header above contains a line with 'inDegrees', this indicates whether rotational values are in degrees (yes) or radians (no).

endheader
time	pelvis_tilt	pelvis_list	pelvis_rotation	pelvis_tx	pelvis_ty	pelvis_tz	hip_flexion_r	hip_adduction_r	hip_rotation_r	knee_angle_r_beta	knee_angle_r	ankle_angle_r	subtalar_angle_r	mtp_angle_r	hip_flexion_l	hip_adduction_l	hip_rotation_l	knee_angle_l_beta	knee_angle_l	ankle_angle_l	subtalar_angle_l	mtp_angle_l	L5_S1_Flex_Ext	L5_S1_Lat_Bending	L5_S1_axial_rotation	L4_L5_Flex_Ext	L4_L5_Lat_Bending	L4_L5_axial_rotation	L3_L4_Flex_Ext	L3_L4_Lat_Bending	L3_L4_axial_rotation	L2_L3_Flex_Ext	L2_L3_Lat_Bending	L2_L3_axial_rotation	L1_L2_Flex_Ext	L1_L2_Lat_Bending	L1_L2_axial_rotation	L1_T12_Flex_Ext	L1_T12_Lat_Bending	L1_T12_axial_rotation	Abs_r3	Abs_r2	Abs_r1	Abs_t1	Abs_t2	arm_flex_r	arm_add_r	arm_rot_r	elbow_flex_r	pro_sup_r	wrist_flex_r	wrist_dev_r	arm_flex_l	arm_add_l	arm_rot_l	elbow_flex_l	pro_sup_l	wrist_flex_l	wrist_dev_l
      2.62000000	      0.17446555	      9.92682052	     92.55177814	      0.39527979	      0.94566291	      0.27823668	     -0.34605265	     -4.66905446	     -1.81441155	      0.29286983	    -16.78020520	      8.08057682	      0.00000000	      0.00000000	     -0.69954200	     -5.43609753	     -0.74127897	      0.24831496	    -14.22739909	      9.45593641	      0.00000000	      0.00000000	     -6.29904828	      0.11492025	     -0.13779253	    -11.69796257	      0.15284394	     -0.14640457	    -10.34870643	      0.27941710	     -0.14640457	     -7.19918228	      0.27941710	     -0.12056847	     -5.84929624	      0.23434538	     -0.11195643	     -3.59927619	      0.17801147	     -0.10334440	    -44.99347199	      1.30000088	     -0.76636073	      0.00000000	      0.00000000	     55.50354799	    -26.67646892	     22.75994299	     74.02864874	     62.82582040	    -27.63114221	     61.67803980	     61.15036758	    -22.69860941	     30.20049126	     66.59806551	     57.73556055	    -24.65669723	     57.09629037
      2.63000000	      0.18927202	      9.55312743	     92.52166461	      0.39499847	      0.94559525	      0.28007038	      0.14254774	     -4.68795664	     -1.68142135	      0.29088763	    -16.66663326	      7.77365709	      0.00000000	      0.00000000	     -0.22262334	     -5.38747817	     -0.65040934	      0.24633402	    -14.11389947	      9.20398684	      0.00000000	      0.00000000	     -6.33371883	      0.11727869	     -0.14214268	    -11.76234923	      0.15598065	     -0.15102660	    -10.40566666	      0.28515140	     -0.15102660	     -7.23880725	      0.28515140	     -0.12437484	     -5.88149130	      0.23915470	     -0.11549093	     -3.61908694	      0.18166468	     -0.10660701	    -45.24112020	      1.32667994	     -0.79055493	      0.00000000	      0.00000000	     57.11006339	    -26.37308484	     22.97656266	     73.08311035	     62.69992819	    -27.34932314	     62.13644417	     62.77932401	    -22.43053452	     30.51006824	     65.54147621	     57.43555782	    -24.30106744	     57.46183886
      2.64000000	      0.22740922	      9.33548508	     92.48769343	      0.39476775	      0.94580660	      0.28175022	      0.39442114	     -4.66531550	     -1.58754563	      0.28695496	    -16.44130829	      7.36409828	      0.00000000	      0.00000000	      0.02884216	     -5.38449806	     -0.65427643	      0.24290539	    -13.91745357	      8.87951367	      0.00000000	      0.00000000	     -6.34857339	      0.12108387	     -0.15092158	    -11.78993563	      0.16104155	     -0.16035418	    -10.43007121	      0.29440333	     -0.16035418	     -7.25578452	      0.29440333	     -0.13205638	     -5.89528525	      0.24691424	     -0.12262378	     -3.62757483	      0.18755892	     -0.11319119	    -45.34722483	      1.36972500	     -0.83938056	      0.00000000	      0.00000000	     58.86468936	    -25.74405536	     23.55489904	     71.01972122	     62.37042098	    -26.75944999	     61.58189926	     64.57127694	    -21.95196634	     31.42378069	     63.26700043	     56.49357616	    -23.62341105	     56.58746969
      2.65000000	      0.28198710	      8.95328409	     92.43320197	      0.39459039	      0.94568891	      0.28349933	      0.85378262	     -4.63357386	     -1.46395479	      0.28372974	    -16.25651665	      7.09801298	      0.00000000	      0.00000000	      0.46540115	     -5.39269110	     -0.65001744	      0.23946712	    -13.72045512	      8.63437647	      0.00000000	      0.00000000	     -6.37796152	      0.12408349	     -0.14896931	    -11.84451234	      0.16503104	     -0.15827989	    -10.47835298	      0.30169660	     -0.15827989	     -7.28937222	      0.30169660	     -0.13034815	     -5.92257507	      0.25303106	     -0.12103757	     -3.64436721	      0.19220533	     -0.11172698	    -45.55714134	      1.40365728	     -0.82852262	      0.00000000	      0.00000000	     60.45447237	    -25.40913051	     23.84657963	     69.86242309	     62.15296069	    -26.38128582	     61.84055592	     66.19377793	    -21.68121587	     31.94912672	     62.07067689	     56.00375325	    -23.30984838	     56.74836009
